<?xml version="1.0" standalone="no"?><!DOCTYPE svg PUBLIC "-//W3C//DTD SVG 1.1//EN" "http://www.w3.org/Graphics/SVG/1.1/DTD/svg11.dtd"><svg t="1733033745216" class="icon" viewBox="0 0 1024 1024" version="1.1" xmlns="http://www.w3.org/2000/svg" p-id="22371" xmlns:xlink="http://www.w3.org/1999/xlink" width="200" height="200"><path d="M244.864 561.28c18.56-44.16 44.48-76.8 63.68-83.84-0.32-25.6 4.48-41.6 12.48-54.4 0-0.96-1.92-11.52 5.12-24.64 4.8-115.2 79.68-206.4 200.96-206.4s196.16 91.2 200.96 206.4c7.04 13.12 5.12 23.68 5.12 24.64 8 12.8 12.8 28.8 12.48 54.4 19.2 7.04 45.12 39.68 63.68 84.16 24 56.32 27.84 110.4 8.64 120-13.12 6.4-33.92-9.6-53.44-37.76-7.68 31.36-26.88 60.16-54.08 82.88 28.8 10.56 47.36 27.84 47.36 47.36 0 32-50.56 57.92-112.64 57.92-56.32 0-102.08-21.12-111.36-48h-13.44c-9.28 26.88-55.04 48-111.36 48-62.08 0-112.64-25.92-112.64-57.92 0-19.52 18.56-36.8 47.36-47.36-27.2-22.72-46.4-51.52-54.08-82.88-19.52 28.16-40.32 44.16-53.44 37.76-19.2-9.6-15.36-63.68 8.64-120.32z" fill="#000000" fill-opacity=".87" p-id="22372"></path></svg>